<?xml version="1.0" encoding="UTF-8"?>
<svg xmlns="http://www.w3.org/2000/svg" version="1.1" viewBox="0 0 150 150">
  <defs>
    <style>
      .cls-1 {
        stroke-width: 1px;
      }

      .cls-1, .cls-2, .cls-3, .cls-4, .cls-5, .cls-6 {
        stroke: #231f20;
        stroke-miterlimit: 10;
      }

      .cls-1, .cls-4 {
        fill: #0b4cdc;
      }

      .cls-2 {
        stroke-width: .9px;
      }

      .cls-2, .cls-3 {
        fill: none;
      }

      .cls-3, .cls-6 {
        stroke-width: .9px;
      }

      .cls-5, .cls-6 {
        fill: #fff;
      }

      .cls-7 {
        display: none;
      }

      .cls-8 {
        font-family: ChosunKg, ChosunKg;
        font-size: 12px;
      }
    </style>
  </defs>
  <!-- Generator: Adobe Illustrator 28.7.1, SVG Export Plug-In . SVG Version: 1.2.0 Build 142)  -->
  <g>
    <g id="Layer_1" class="cls-7">
      <polygon class="cls-4" points="121.9 49.1 113.5 37.3 94.7 37.2 86.5 47.6 29.4 47.6 29.4 107.9 121.9 107.9 121.9 49.1"/>
      <g>
        <rect class="cls-5" x="-101.3" y="30.8" width="78.6" height="68.6"/>
        <line class="cls-3" x1="-95.5" y1="43.4" x2="-28.9" y2="43.4"/>
        <line class="cls-3" x1="-95.5" y1="51.9" x2="-28.9" y2="51.9"/>
        <line class="cls-3" x1="-95.5" y1="60.4" x2="-28.9" y2="60.4"/>
        <line class="cls-3" x1="-95.5" y1="68.9" x2="-28.9" y2="68.9"/>
        <line class="cls-3" x1="-95.5" y1="73.3" x2="-28.9" y2="73.3"/>
        <line class="cls-3" x1="-95.5" y1="81.8" x2="-28.9" y2="81.8"/>
      </g>
      <rect class="cls-1" x="29.4" y="57.8" width="92.5" height="53.5"/>
      <text class="cls-8" transform="translate(57.6 126.2)"><tspan x="0" y="0">사건_3 </tspan></text>
    </g>
    <g id="Layer_2" class="cls-7">
      <g>
        <rect class="cls-6" x="32.7" y="20.4" width="84.6" height="98.4"/>
        <line class="cls-3" x1="41.5" y1="33.4" x2="108.1" y2="33.4"/>
        <line class="cls-3" x1="41.5" y1="41.9" x2="108.1" y2="41.9"/>
        <line class="cls-3" x1="41.5" y1="50.4" x2="108.1" y2="50.4"/>
        <line class="cls-3" x1="41.5" y1="58.9" x2="108.1" y2="58.9"/>
        <line class="cls-3" x1="41.5" y1="67.4" x2="108.1" y2="67.4"/>
        <line class="cls-3" x1="41.5" y1="75.9" x2="108.1" y2="75.9"/>
        <line class="cls-3" x1="41.5" y1="84.4" x2="108.1" y2="84.4"/>
        <line class="cls-3" x1="41.5" y1="92.9" x2="108.1" y2="92.9"/>
        <line class="cls-3" x1="41.5" y1="101.5" x2="108.1" y2="101.5"/>
        <line class="cls-3" x1="41.5" y1="110" x2="108.1" y2="110"/>
      </g>
      <text class="cls-8" transform="translate(57.1 138.3)"><tspan x="0" y="0">사건_3 </tspan></text>
    </g>
    <g id="Layer_3">
      <rect class="cls-2" x="28" y="35.6" width="93.9" height="67.3"/>
      <polygon points="32 75 32 98.5 118.1 98.5 118.1 74.1 107.7 57.4 75 72.5 51.8 45.2 32 75"/>
      <circle cx="90.6" cy="50.8" r="5.6"/>
      <text class="cls-8" transform="translate(57.7 118.4)"><tspan x="0" y="0">사건_3 </tspan></text>
    </g>
  </g>
</svg>