<?xml version="1.0" encoding="UTF-8"?>
<svg xmlns="http://www.w3.org/2000/svg" version="1.1" viewBox="0 0 1400.7 931.5">
  <defs>
    <style>
      .cls-1 {
        isolation: isolate;
      }

      .cls-2 {
        stroke: #284a9f;
        stroke-miterlimit: 10;
        stroke-width: 5.6px;
      }

      .cls-2, .cls-3 {
        fill: #fff;
      }

      .cls-4 {
        fill: #0b4cdc;
      }
    </style>
  </defs>
  <!-- Generator: Adobe Illustrator 28.7.1, SVG Export Plug-In . SVG Version: 1.2.0 Build 142)  -->
  <g>
    <g id="_기본_비주얼">
      <path class="cls-2" d="M712.5,55l.5,322-519.4.8c-80.6.1-146.1-65.2-146.3-145.8v-29.9c-.2-80.6,65.2-146.1,145.8-146.3l519.4-.8h0Z"/>
      <path class="cls-4" d="M193.1,83.6l491.6-.8.4,266.4-491.6.8c-65.3.1-118.3-52.8-118.4-118.1v-29.9c-.1-65.3,52.8-118.3,118-118.4h0Z"/>
      <path class="cls-2" d="M1355,517.9l.4,276.1c.1,65.9-53.3,119.5-119.2,119.6l-1079.4,1.7c-65.9.1-119.5-53.3-119.6-119.2l-.4-276.1c-.1-65.9,53.3-119.5,119.2-119.6l1079.4-1.7c65.9-.1,119.5,53.3,119.6,119.2h0Z"/>
      <rect class="cls-4" x="64.8" y="428" width="1262.6" height="458.1" rx="91.3" ry="91.3" transform="translate(-1 1.1) rotate(0)"/>
      <g class="cls-1">
        <g class="cls-1">
          <path class="cls-3" d="M224.6,588.1v49.7c0,0,111.4-.2,111.4-.2v46.7c0,0-111.2.2-111.2.2v90.3c.1,0-51.2,0-51.2,0l-.4-233.3,177.6-.3v46.7c0,0-126.2.2-126.2.2Z"/>
          <path class="cls-3" d="M387.5,576.2v-45c0,0,53.3,0,53.3,0v45c0,0-53.3,0-53.3,0ZM389.2,774.5l-.3-178.6h50.7c0,0,.3,178.6.3,178.6h-50.7Z"/>
          <path class="cls-3" d="M600.4,774.2l-.2-99.6c0-24-11.4-36.3-30.7-36.3-19.3,0-31.6,12.4-31.6,36.4l.2,99.6h-50.7c0,0-.3-178.6-.3-178.6h50.7c0,0,0,25.2,0,25.2,11.6-15,26.6-28.7,52.3-28.7,38.3,0,60.7,25.2,60.8,66.2l.2,115.6h-50.7Z"/>
          <path class="cls-3" d="M824,773.8v-25.7c-12.3,16.7-29.3,29-55.7,29.1-41.7,0-81.4-32.5-81.5-92.2v-.7c0-59.7,38.8-92.4,81.2-92.4,27,0,43.7,12.3,55.7,26.6v-88c-.1,0,50.5,0,50.5,0l.4,243.3h-50.7ZM824.6,684.2c0-29.7-19.7-49.3-43.4-49.3-23.7,0-43.6,19.4-43.6,49.4v.7c0,29.7,20.1,49.3,43.7,49.3,23.7,0,43.3-19.7,43.2-49.4v-.7Z"/>
          <path class="cls-3" d="M1085.9,701.8l-124.3.2c5,23,21.1,35,43.7,34.9,17,0,29.3-5.4,43.3-18.4l29,25.6c-16.6,20.7-40.6,33.4-72.9,33.4-53.7,0-93.4-37.5-93.5-92.2v-.7c0-51,36.2-93,88.2-93.1,59.7,0,87.1,46.2,87.1,96.8v.7c0,5-.3,8-.6,12.7ZM999.4,632.3c-21,0-34.6,15.1-38.6,38.1h76.3c-3-22.8-16.4-38.1-37.7-38.1Z"/>
          <path class="cls-3" d="M1229.1,644.2c-33.7,0-54.3,20.4-54.2,63.1v66c.1,0-50.6,0-50.6,0l-.3-178.6h50.7c0,0,0,35.9,0,35.9,10.3-24.7,26.9-40.7,56.9-39.4v53c0,0-2.6,0-2.6,0Z"/>
        </g>
      </g>
      <path d="M1193.7,122.6h0c-5.1,6-4.8,14.9.8,20.6l48.5,49.6c2.5,2.6.7,6.9-2.9,6.9l-101.3.2c-8.4,0-15.3,6.9-15.2,15.3v.2c0,8.4,6.9,15.3,15.3,15.2l101.3-.2c3.6,0,5.4,4.3,2.9,6.9l-48.3,49.8c-5.5,5.6-5.8,14.5-.7,20.5h0c5.9,6.9,16.4,7.2,22.7.7,26.1-27.2,62.2-65.5,79.5-83.9,5.6-6,5.5-15.3-.2-21.1l-79.6-81.5c-6.3-6.4-16.8-6.1-22.6.8h0Z"/>
      <path d="M528.8,113.6l.2,90-400.8.7v30.7c0,0,400.8-.7,400.8-.7l.2,90c33.6-34.6,101.2-106.8,101.2-106.8l-101.6-104h0Z"/>
      <path d="M984.8,109.9l-19.8,23.5c10.4,31,30.3,51.4,64.7,73.4l-249.7-6.6v30.7s249.8-6.6,249.8-6.6c-33.6,22.1-54.7,43.2-64.4,72.9l19.9,23.4c12.2-41.2,62.4-76.9,111.2-106.6-50.9-30.1-98.7-63.9-111.5-104.2h0Z"/>
    </g>
  </g>
</svg>