<?xml version="1.0" encoding="UTF-8"?>
<svg xmlns="http://www.w3.org/2000/svg" version="1.1" viewBox="0 0 1060.2 1094.8">
  <defs>
    <style>
      .cls-1 {
        isolation: isolate;
      }

      .cls-2 {
        fill: #fff;
      }
    </style>
  </defs>
  <!-- Generator: Adobe Illustrator 28.7.1, SVG Export Plug-In . SVG Version: 1.2.0 Build 142)  -->
  <g>
    <g id="Layer_1">
      <g id="Layer_1-2" data-name="Layer_1">
        <rect class="cls-2" x="-1161.4" y="-78.1" width="2262.3" height="1310"/>
        <g class="cls-1">
          <g class="cls-1">
            <path d="M289.2,543.5h-39.4v-53.9h101.1v53.9h-39.7v13.1h56.6v19.5h-134.7v-19.5h56.3v-13.1h-.2ZM328.9,643.9v-37.7h-80.8v-19.5h102.7v57.3h-21.9ZM328.9,524.6v-16.2h-57.3v16.2h57.3Z"/>
            <path d="M393.9,490.6h70.4v2.5c0,1,0,2.8-.3,5.3s-.4,4.4-.6,5.6c-.1,1.5-.4,3.3-.8,5.4s-.9,4.1-1.4,5.9c-.4,1.5-1,3.2-1.7,5.3s-1.3,3.8-2,5.1c-.8,1.8-1.8,3.6-3,5.5s-2.5,3.6-3.7,5.1c-1.2,1.6-2.8,3.2-4.5,5-1.8,1.7-3.5,3.3-5.2,4.6-2.1,1.8-4.4,3.5-6.7,5.1-2.3,1.6-4.5,3-6.5,4.2-2.4,1.5-4.6,2.8-6.7,4s-4.2,2.4-6.2,3.5c-2.5,1.3-5.2,2.8-8.2,4.2-3,1.5-5.6,2.8-8,3.9-1.1-1.6-2.2-3.1-3.2-4.7-1-1.6-2.1-3.1-3.4-4.5-1.2-1.7-2.6-3.4-4.1-5.2s-3.1-3.5-4.6-5.2c1.9-.7,3.8-1.4,5.7-2.1,1.9-.7,3.9-1.5,5.9-2.3,1.8-.7,3.6-1.4,5.5-2.2s3.8-1.6,5.8-2.5c1.8-.9,3.7-1.9,5.7-2.9s3.9-2,5.7-3c1.9-1.1,3.6-2.2,5.2-3.2s3.1-2.1,4.7-3.4c1.5-1.2,2.7-2.3,3.7-3.3s2-2,2.9-3.1c1-1.2,1.9-2.5,2.7-3.8.8-1.3,1.5-2.5,2-3.6.4-.9.9-1.9,1.3-3,.4-1.1.6-2.1.8-3h-47.2v-19.2h0ZM514.2,641.5h-107.1v-42.8h81.9v-7.1h-83.5v-18.5h105.4v41.8h-81.9v7.4h85.2v19.2h0ZM488.9,485.5h21.9v81.5h-21.9v-27.3h-28.6v-20.2h28.6v-34Z"/>
            <path d="M544,544c.3-4.2.7-7.2,1-9.1.4-2.6,1-5.2,1.6-7.8s1.3-5,2.1-7.2c.8-2,1.8-4.3,2.9-6.9,1.2-2.6,2.5-4.8,4-6.6,1.2-1.6,2.5-3.1,3.9-4.5,1.3-1.4,2.7-2.6,4-3.6,1.1-.9,2.5-1.8,4.2-2.6,1.7-.8,3.3-1.5,4.9-1.9,1.2-.4,2.9-.8,5.1-1.1,2.2-.3,4.1-.4,5.8-.4s3.6.1,5.8.4,3.9.6,5.1,1.1c1.6.5,3.2,1.1,4.8,1.9s3,1.7,4.1,2.6c1.3,1,2.7,2.2,4.1,3.6,1.4,1.4,2.7,2.9,3.8,4.5,1.3,1.8,2.7,4,4,6.6,1.3,2.6,2.3,4.9,3.1,6.9s1.5,4.4,2.1,7.2,1.1,5.4,1.6,8c.3,1.9.7,4.9,1,9s.5,7.6.5,10.5-.2,6.3-.5,10.4c-.3,4.2-.7,7.2-1,9.1-.5,2.5-1,5.1-1.6,7.9-.6,2.8-1.3,5.2-2.1,7.2s-1.8,4.3-3.1,6.9c-1.3,2.6-2.6,4.8-4,6.6-1.1,1.5-2.4,2.9-3.8,4.4-1.4,1.5-2.8,2.7-4.1,3.7-1.1.8-2.5,1.6-4.1,2.4-1.6.8-3.2,1.5-4.8,2.1-1.2.5-2.9.8-5.1,1.1-2.2.3-4.1.4-5.8.4s-3.6,0-5.8-.4c-2.2-.3-3.9-.6-5.1-1.1-1.6-.6-3.2-1.3-4.8-2.1s-3-1.7-4.1-2.4c-1.3-1-2.7-2.2-4.1-3.7-1.4-1.5-2.7-2.9-3.8-4.4-1.3-1.8-2.7-4-4-6.6s-2.3-4.9-3.1-6.9-1.5-4.4-2.1-7.2-1.2-5.4-1.6-7.9c-.3-1.9-.7-4.9-1-9.1-.3-4.2-.5-7.6-.5-10.4s.2-6.5.5-10.6h0ZM566.1,563.3c.2,3.1.4,5.4.5,6.8.2,1.8.6,3.9,1,6.2.4,2.4.9,4.3,1.3,5.9.6,1.6,1.2,3.2,1.9,4.9s1.5,3.2,2.4,4.5c.7.9,1.4,1.7,2.3,2.4.8.7,1.8,1.4,2.8,1.9.7.3,1.5.6,2.5.8s1.9.3,2.7.3,1.7,0,2.7-.3,1.9-.5,2.5-.8c1-.6,1.9-1.2,2.8-1.9.8-.7,1.6-1.5,2.3-2.4.9-1.3,1.7-2.9,2.5-4.5.8-1.7,1.4-3.3,1.9-4.9.6-1.6,1.1-3.5,1.5-5.9s.7-4.4.8-6.2c.2-1.5.4-3.7.6-6.8.2-3.1.3-6,.3-8.7s0-5.6-.3-8.7c-.2-3.1-.4-5.4-.6-6.8,0-1.8-.4-3.9-.8-6.2-.5-2.4-1-4.3-1.5-5.9-.5-1.6-1.1-3.2-1.9-4.9-.8-1.7-1.6-3.2-2.5-4.5-.7-.9-1.4-1.7-2.3-2.5-.8-.8-1.8-1.4-2.8-1.9-.7-.3-1.5-.6-2.5-.8s-1.9-.3-2.7-.3-1.7,0-2.7.3-1.9.5-2.5.8c-1,.5-1.9,1.1-2.8,1.9-.8.8-1.6,1.6-2.3,2.5-.9,1.3-1.7,2.9-2.4,4.5-.7,1.7-1.4,3.3-1.9,4.9-.5,1.6-.9,3.5-1.3,5.9-.5,2.4-.8,4.4-1,6.2,0,1.5-.3,3.7-.5,6.8s-.3,6-.3,8.7,0,5.6.3,8.7ZM664.1,643.9h-21.9v-158.3h21.9v158.3Z"/>
            <path d="M723,489.9v53.6c2,0,4.5-.3,7.6-.5,3-.2,5.3-.4,6.7-.5,1.6-.2,4-.5,7.2-.8,3.3-.3,6.1-.7,8.4-1,2.5-.3,5.2-.8,8.1-1.3,2.9-.5,5.6-1,8.1-1.4,2.2-.4,5-1,8.2-1.8,3.2-.7,5.5-1.3,7-1.8l2.4,21.9c-1.5.3-4.1.8-7.8,1.3-3.8.6-7,1.1-9.7,1.5-2.5.5-6.1.9-10.9,1.4-4.8.5-8.5.9-11,1.1-3.3.3-7.3.7-12.2,1s-8.8.6-11.7.7c-2.6,0-5.9.3-9.9.4-4,.2-8.1.3-12.3.3v-74.1h21.9,0ZM735.5,643.9h-21.9v-66h103.8v66h-21.9v-4h-60v4h0ZM795.5,620.6v-23.6h-60v23.6h60ZM817.4,571.1h-21.9v-85.6h21.9v85.6Z"/>
          </g>
        </g>
      </g>
    </g>
  </g>
</svg>