<?xml version="1.0" encoding="UTF-8"?>
<svg xmlns="http://www.w3.org/2000/svg" version="1.1" viewBox="0 0 150 150">
  <defs>
    <style>
      .cls-1 {
        isolation: isolate;
      }

      .cls-2 {
        fill: none;
      }

      .cls-2, .cls-3, .cls-4, .cls-5 {
        stroke: #231f20;
        stroke-miterlimit: 10;
      }

      .cls-2, .cls-5 {
        stroke-width: .9px;
      }

      .cls-3 {
        fill: #0b4cdc;
      }

      .cls-4, .cls-5 {
        fill: #fff;
      }

      .cls-6 {
        display: none;
      }
    </style>
  </defs>
  <!-- Generator: Adobe Illustrator 28.7.1, SVG Export Plug-In . SVG Version: 1.2.0 Build 142)  -->
  <g>
    <g id="Layer_1">
      <g>
        <g id="Layer_1-2" data-name="Layer_1">
          <polygon class="cls-3" points="121.9 49.1 113.5 37.3 94.7 37.2 86.5 47.6 29.4 47.6 29.4 107.9 121.9 107.9 121.9 49.1"/>
          <g>
            <rect class="cls-4" x="35.7" y="29.4" width="78.6" height="68.6"/>
            <line class="cls-2" x1="41.6" y1="42" x2="108.2" y2="42"/>
            <line class="cls-2" x1="41.6" y1="50.5" x2="108.2" y2="50.5"/>
            <line class="cls-2" x1="41.6" y1="59" x2="108.2" y2="59"/>
            <line class="cls-2" x1="41.6" y1="67.5" x2="108.2" y2="67.5"/>
            <line class="cls-2" x1="41.6" y1="71.9" x2="108.2" y2="71.9"/>
            <line class="cls-2" x1="41.6" y1="80.4" x2="108.2" y2="80.4"/>
          </g>
          <rect class="cls-3" x="29.4" y="54.6" width="92.5" height="56.7"/>
          <g class="cls-1">
            <g class="cls-1">
              <path d="M58,120.5v-1.1h.2c.2,0,.5,0,.7,0,.3,0,.5-.1.6-.2.2-.1.3-.2.4-.4.1-.1.2-.3.2-.5h1.1v9.4h-1.6v-7.2h-1.7Z"/>
              <path d="M63.1,120.5v-1.1h.2c.2,0,.5,0,.7,0,.3,0,.5-.1.6-.2.2-.1.3-.2.4-.4.1-.1.2-.3.2-.5h1.1v9.4h-1.6v-7.2h-1.7Z"/>
              <path d="M72.7,123.8h-1.6v-1.2c-.4,0-.8,0-1.3,0-.4,0-.8,0-1.1,0l-.3-1.4c.4,0,.9,0,1.5,0,.7,0,1.3,0,1.9,0,.5,0,1.1,0,1.8-.1s1.1-.1,1.5-.1v1.2c-.3,0-.7.1-1.2.2-.5,0-.9,0-1.4.1v1.3ZM69.1,118.8c0-.1,0-.2.1-.3,0,0,0-.1.1-.2s.1-.2.2-.2c0,0,.1-.1.2-.2,0,0,.2-.1.2-.2,0,0,.2,0,.3-.1.1,0,.2,0,.3,0,0,0,.2,0,.3,0,.1,0,.2,0,.3,0,0,0,.2,0,.4,0,.2,0,.3,0,.4,0s.3,0,.4,0c.2,0,.3,0,.4,0,0,0,.2,0,.3,0,.1,0,.2,0,.3,0,0,0,.2,0,.3,0,0,0,.2,0,.3.1,0,0,.2,0,.2.2,0,0,.1.1.2.2,0,0,.1.1.2.2s.1.2.1.2c0,0,0,.2.1.3,0,.1,0,.2,0,.4s0,.2,0,.4c0,.1,0,.2-.1.3,0,0,0,.1-.1.2,0,0-.1.2-.2.2,0,0-.1.1-.2.2,0,0-.2.1-.2.1,0,0-.2,0-.3.1,0,0-.2,0-.3,0,0,0-.2,0-.3,0-.1,0-.2,0-.3,0,0,0-.2,0-.4,0-.2,0-.3,0-.4,0s-.3,0-.4,0c-.2,0-.3,0-.4,0,0,0-.2,0-.3,0-.1,0-.2,0-.3,0s-.2,0-.3,0-.2,0-.3-.1c0,0-.2,0-.2-.1,0,0-.1-.1-.2-.2,0,0-.1-.1-.2-.2,0,0-.1-.2-.1-.2,0,0,0-.2-.1-.3,0-.1,0-.2,0-.4s0-.2,0-.4ZM77.6,128.5h-7.6v-2.8h5.8v-.4h-6v-1.2h7.5v2.7h-5.8v.5h6.1v1.3ZM70.6,119.3s0,0,0,.1c0,0,0,0,0,0,0,0,0,0,0,0,0,0,0,0,.1,0,0,0,0,0,.1,0,0,0,.1,0,.2,0,0,0,.1,0,.2,0,0,0,.1,0,.2,0,0,0,.2,0,.3,0s.2,0,.3,0,.2,0,.2,0c0,0,.1,0,.2,0,0,0,.1,0,.2,0,0,0,0,0,.1,0,0,0,0,0,.1,0,0,0,0,0,.1,0,0,0,0,0,0,0,0,0,0,0,0-.1,0,0,0,0,0-.1s0,0,0-.1c0,0,0,0,0-.1,0,0,0,0,0,0,0,0,0,0-.1,0,0,0,0,0-.1,0,0,0,0,0-.1,0,0,0-.1,0-.2,0,0,0-.1,0-.2,0,0,0,0,0-.2,0,0,0-.2,0-.3,0s-.2,0-.3,0c0,0-.2,0-.2,0,0,0-.1,0-.2,0,0,0-.1,0-.2,0,0,0,0,0-.1,0s0,0-.1,0c0,0,0,0,0,0,0,0,0,0,0,0,0,0,0,0,0,.1,0,0,0,.1,0,.1s0,0,0,.1ZM73.8,123.7v-1.1h2v-5.3h1.6v6.4h-3.5Z"/>
              <path d="M83.4,125.3c0,0-.2,0-.2,0,0,0-.1,0-.2,0-.1,0-.3,0-.4,0-.1,0-.3,0-.3-.1,0,0-.2,0-.3-.1-.1,0-.2,0-.3-.1,0,0-.1,0-.2-.1,0,0-.1-.1-.2-.2,0,0-.1-.1-.2-.2,0,0-.1-.2-.1-.2,0,0,0-.2-.1-.3,0-.1,0-.3,0-.4s0-.3,0-.4c0-.1,0-.2.1-.3,0,0,0-.1.1-.2,0,0,.1-.2.2-.2,0,0,.1-.1.2-.2,0,0,.1-.1.2-.1,0,0,.2,0,.3-.1,0,0,.2,0,.3-.1,0,0,.2,0,.3-.1.1,0,.3,0,.4,0,.1,0,.3,0,.6,0,.2,0,.5,0,.7,0s.4,0,.7,0c.2,0,.4,0,.6,0,.1,0,.3,0,.4,0,.1,0,.3,0,.3.1,0,0,.2,0,.3.1,0,0,.2,0,.3.1,0,0,.1,0,.2.1,0,0,.1.1.2.2,0,0,.1.1.2.2,0,0,0,.2.1.2,0,0,0,.2.1.3,0,.1,0,.3,0,.4s0,.3,0,.4c0,.1,0,.2-.1.3,0,0,0,.1-.1.2,0,0-.1.2-.2.2,0,0-.1.1-.2.2,0,0-.1.1-.2.1,0,0-.2,0-.3.1,0,0-.2,0-.3.1,0,0-.2,0-.3.1-.1,0-.3,0-.4,0,0,0-.1,0-.2,0,0,0-.2,0-.3,0v1.2h4.1v1.4h-9.6v-1.4h4v-1.2ZM80,119.5h8.4v1.4h-8.4v-1.4ZM81.8,117.7h4.4v1.4h-4.4v-1.4ZM82.4,123.4s0,0,0,0c0,0,0,0,0,.1s0,0,.1.1c0,0,0,0,.1,0s.1,0,.2,0c0,0,.1,0,.2,0,0,0,.2,0,.3,0,0,0,.2,0,.4,0,.2,0,.3,0,.4,0s.3,0,.4,0c.2,0,.3,0,.4,0,0,0,.2,0,.3,0,0,0,.2,0,.2,0,0,0,.1,0,.2,0s.1,0,.1,0c0,0,0,0,.1-.1,0,0,0,0,0-.1,0,0,0,0,0,0,0,0,0,0,0-.1s0,0,0-.1c0,0,0,0,0,0,0,0,0,0,0-.1,0,0,0,0-.1-.1,0,0,0,0-.1,0,0,0-.1,0-.2,0,0,0-.1,0-.2,0s-.2,0-.3,0c0,0-.2,0-.4,0-.2,0-.3,0-.4,0s-.3,0-.4,0-.3,0-.4,0c0,0-.2,0-.3,0,0,0-.2,0-.2,0,0,0-.1,0-.2,0,0,0-.1,0-.1,0,0,0,0,0-.1.1s0,0,0,.1c0,0,0,0,0,0s0,0,0,.1,0,0,0,.1Z"/>
            </g>
          </g>
        </g>
        <g id="Layer_2" class="cls-6">
          <rect class="cls-5" x="31.7" y="24.6" width="84.6" height="98.4"/>
          <line class="cls-2" x1="40.5" y1="37.6" x2="107.1" y2="37.6"/>
          <line class="cls-2" x1="40.5" y1="46.1" x2="107.1" y2="46.1"/>
          <line class="cls-2" x1="40.5" y1="54.6" x2="107.1" y2="54.6"/>
          <line class="cls-2" x1="40.5" y1="63.2" x2="107.1" y2="63.2"/>
          <line class="cls-2" x1="40.5" y1="71.7" x2="107.1" y2="71.7"/>
          <line class="cls-2" x1="40.5" y1="80.2" x2="107.1" y2="80.2"/>
          <line class="cls-2" x1="40.5" y1="88.7" x2="107.1" y2="88.7"/>
          <line class="cls-2" x1="40.5" y1="97.2" x2="107.1" y2="97.2"/>
          <line class="cls-2" x1="40.5" y1="105.7" x2="107.1" y2="105.7"/>
          <line class="cls-2" x1="40.5" y1="114.2" x2="107.1" y2="114.2"/>
        </g>
      </g>
    </g>
  </g>
</svg>