<?xml version="1.0" encoding="UTF-8"?>
<svg xmlns="http://www.w3.org/2000/svg" version="1.1" viewBox="0 0 1060.2 1094.8">
  <defs>
    <style>
      .cls-1 {
        isolation: isolate;
      }

      .cls-2 {
        fill: #fff;
      }
    </style>
  </defs>
  <!-- Generator: Adobe Illustrator 28.7.1, SVG Export Plug-In . SVG Version: 1.2.0 Build 142)  -->
  <g>
    <g id="Layer_1">
      <rect class="cls-2" x="-81.2" y="-78.1" width="2262.3" height="1310"/>
      <g class="cls-1">
        <g class="cls-1">
          <path d="M362.6,490.7h21.6v85.9h-71.4v-84.9h21.6v22.6h28.3v-23.6ZM324.5,590.4h21.9v31.3h81.9v19.5h-103.8v-50.9ZM334.3,533.9v23.2h28.3v-23.2h-28.3ZM445.8,526.1v20.5h-20.9v55.2h-21.9v-116.2h21.9v40.4h20.9Z"/>
          <path d="M465,517.3v-20.5h80.2v20.5h-29.6v1.7c0,1.3,0,3.1.2,5.2.1,2.1.2,4.2.3,6.1.2,1.8.5,4.1.8,7s.7,5.4,1.2,7.7c.6,2.1,1.3,4.8,2.1,7.9.8,3.1,1.8,6.1,2.9,8.8.8,1.9,1.9,4.3,3.4,7.2,1.5,2.9,2.9,5.4,4.4,7.7,1.3,2.1,2.9,4.3,4.8,6.6,1.9,2.2,3.7,4.4,5.5,6.4,1.6,1.8,3.7,3.9,6.3,6.2,2.6,2.4,5,4.4,7.2,6.1-1.8,1.5-3.5,2.9-5.2,4.4-1.7,1.5-3.2,2.8-4.5,4-1.6,1.5-3.2,3.1-4.9,4.9-1.7,1.8-3.2,3.5-4.5,5.1-1.5-1.8-3-3.6-4.5-5.6-1.6-1.9-3-3.8-4.4-5.6-1.3-1.8-2.8-3.8-4.3-6s-2.9-4.3-4.1-6.3c-1.5-2.2-2.9-4.6-4.3-7.1-1.4-2.5-2.8-5.1-4.1-7.9-.6-1.2-1.2-2.6-1.8-4-.6-1.4-1.3-2.8-1.9-4.3-.1.5-.3.9-.4,1.3-.2.4-.4.8-.6,1.3-1.1,2.9-2.3,5.6-3.5,8.2s-2.6,5.1-4.1,7.8c-1.5,2.7-2.9,5.2-4.2,7.4-1.3,2.2-2.8,4.5-4.4,6.7-1.3,2.1-3,4.5-4.9,7.1-1.9,2.6-3.7,5-5.4,7.2-1.2-1.2-2.7-2.6-4.3-4-1.6-1.4-3.3-2.7-5-4-1.7-1.2-3.5-2.6-5.5-4-2-1.5-3.9-2.8-5.8-3.9,2.1-2,4.3-4.2,6.6-6.7,2.2-2.4,4.2-4.6,5.7-6.5,1.6-1.8,3.2-3.7,4.8-5.8,1.6-2.1,3.1-4.1,4.3-6.1,1.3-2.1,2.6-4.2,3.7-6.3,1.1-2.1,2.2-4.3,3.4-6.7,1-2.2,1.9-4.6,2.8-7.1.8-2.5,1.5-4.9,2.1-7.2.4-1.8.9-4.2,1.4-7.2.5-3,.8-5.6.9-7.7.2-1.9.4-4.6.5-8.1.1-3.5.2-6.3.2-8.4v-3.4h-29.3ZM583.9,644h-21.9v-158.3h21.9v158.3Z"/>
          <path d="M642.9,490.1v53.6c2-.1,4.5-.3,7.6-.5,3-.2,5.3-.4,6.7-.5,1.6-.2,4-.5,7.2-.8,3.3-.3,6.1-.7,8.4-1,2.5-.3,5.2-.8,8.1-1.3,2.9-.5,5.6-1,8.1-1.4,2.2-.4,5-1,8.2-1.8,3.2-.7,5.5-1.3,7-1.8l2.4,21.9c-1.5.3-4.1.8-7.8,1.3-3.8.6-7,1.1-9.7,1.5-2.5.5-6.1.9-10.9,1.4-4.8.5-8.5.9-11,1.1-3.3.3-7.3.7-12.2,1s-8.8.6-11.7.7c-2.6.1-5.9.3-9.9.4-4,.2-8.1.3-12.3.3v-74.1h21.9ZM655.3,644h-21.9v-66h103.8v66h-21.9v-4h-60v4ZM715.3,620.8v-23.6h-60v23.6h60ZM737.2,571.2h-21.9v-85.6h21.9v85.6Z"/>
        </g>
      </g>
    </g>
  </g>
</svg>