<?xml version="1.0" encoding="UTF-8"?>
<svg xmlns="http://www.w3.org/2000/svg" version="1.1" viewBox="0 0 150 150">
  <defs>
    <style>
      .cls-1 {
        stroke-width: .9px;
      }

      .cls-1, .cls-2, .cls-3, .cls-4, .cls-5 {
        stroke: #231f20;
        stroke-miterlimit: 10;
      }

      .cls-1, .cls-3 {
        fill: #0b4cdc;
      }

      .cls-2 {
        fill: none;
      }

      .cls-2, .cls-5 {
        stroke-width: .9px;
      }

      .cls-4, .cls-5 {
        fill: #fff;
      }

      .cls-6 {
        display: none;
      }

      .cls-7 {
        font-family: ChosunKg, ChosunKg;
        font-size: 12px;
      }
    </style>
  </defs>
  <!-- Generator: Adobe Illustrator 28.7.1, SVG Export Plug-In . SVG Version: 1.2.0 Build 142)  -->
  <g>
    <g id="Layer_1">
      <polygon class="cls-3" points="121.9 49.1 113.5 37.3 94.7 37.2 86.5 47.6 29.4 47.6 29.4 107.9 121.9 107.9 121.9 49.1"/>
      <g>
        <rect class="cls-4" x="36.4" y="30.6" width="78.6" height="68.6"/>
        <line class="cls-2" x1="42.2" y1="43.1" x2="108.8" y2="43.1"/>
        <line class="cls-2" x1="42.2" y1="51.6" x2="108.8" y2="51.6"/>
        <line class="cls-2" x1="42.2" y1="60.1" x2="108.8" y2="60.1"/>
        <line class="cls-2" x1="42.2" y1="68.6" x2="108.8" y2="68.6"/>
        <line class="cls-2" x1="42.2" y1="73" x2="108.8" y2="73"/>
        <line class="cls-2" x1="42.2" y1="81.5" x2="108.8" y2="81.5"/>
      </g>
      <rect class="cls-1" x="29.4" y="63.8" width="92.5" height="47.5"/>
      <text class="cls-7" transform="translate(57.6 126.2)"><tspan x="0" y="0">사건_3 </tspan></text>
    </g>
    <g id="Layer_2" class="cls-6">
      <rect class="cls-5" x="31.7" y="24.6" width="84.6" height="98.4"/>
      <line class="cls-2" x1="40.5" y1="37.6" x2="107.1" y2="37.6"/>
      <line class="cls-2" x1="40.5" y1="46.1" x2="107.1" y2="46.1"/>
      <line class="cls-2" x1="40.5" y1="54.6" x2="107.1" y2="54.6"/>
      <line class="cls-2" x1="40.5" y1="63.2" x2="107.1" y2="63.2"/>
      <line class="cls-2" x1="40.5" y1="71.7" x2="107.1" y2="71.7"/>
      <line class="cls-2" x1="40.5" y1="80.2" x2="107.1" y2="80.2"/>
      <line class="cls-2" x1="40.5" y1="88.7" x2="107.1" y2="88.7"/>
      <line class="cls-2" x1="40.5" y1="97.2" x2="107.1" y2="97.2"/>
      <line class="cls-2" x1="40.5" y1="105.7" x2="107.1" y2="105.7"/>
      <line class="cls-2" x1="40.5" y1="114.2" x2="107.1" y2="114.2"/>
    </g>
  </g>
</svg>